<?xml version="1.0" encoding="UTF-8" standalone="no"?>
<!DOCTYPE svg PUBLIC "-//W3C//DTD SVG 1.1//EN"
 "http://www.w3.org/Graphics/SVG/1.1/DTD/svg11.dtd">
<!-- Generated by graphviz version 2.47.0 (20210316.0004)
 -->
<!-- Title: dependencies Pages: 1 -->
<svg width="504pt" height="284pt"
 viewBox="0.00 0.00 504.00 284.00" xmlns="http://www.w3.org/2000/svg" xmlns:xlink="http://www.w3.org/1999/xlink">
<g id="graph0" class="graph" transform="scale(1 1) rotate(0) translate(4 280)">
<title>dependencies</title>
<polygon fill="white" stroke="transparent" points="-4,4 -4,-280 500,-280 500,4 -4,4"/>
<text text-anchor="start" x="227.01" y="-42.4" font-family="Times-12" font-weight="bold" font-size="14.00">Legend</text>
<polygon fill="#ffffb3" stroke="transparent" points="14,-10 14,-30 34,-30 34,-10 14,-10"/>
<text text-anchor="start" x="37.63" y="-15.4" font-family="Times-12" font-size="14.00"> &#160;Declarations</text>
<polygon fill="#8dd3c7" stroke="transparent" points="127,-10 127,-30 147,-30 147,-10 127,-10"/>
<text text-anchor="start" x="150.73" y="-15.4" font-family="Times-12" font-size="14.00"> &#160;Module</text>
<polygon fill="#80b1d3" stroke="transparent" points="213,-10 213,-30 233,-30 233,-10 213,-10"/>
<text text-anchor="start" x="236.78" y="-15.4" font-family="Times-12" font-size="14.00"> &#160;Bootstrap</text>
<polygon fill="#fdb462" stroke="transparent" points="310,-10 310,-30 330,-30 330,-10 310,-10"/>
<text text-anchor="start" x="333.67" y="-15.4" font-family="Times-12" font-size="14.00"> &#160;Providers</text>
<polygon fill="#fb8072" stroke="transparent" points="406,-10 406,-30 426,-30 426,-10 406,-10"/>
<text text-anchor="start" x="429.73" y="-15.4" font-family="Times-12" font-size="14.00"> &#160;Exports</text>
<g id="clust7" class="cluster">
<title>cluster_SharedModule</title>
<polygon fill="none" stroke="black" stroke-dasharray="1,5" points="132,-70 132,-268 364,-268 364,-70 132,-70"/>
</g>
<g id="clust9" class="cluster">
<title>cluster_SharedModule_imports</title>
<polygon fill="none" stroke="black" points="143,-78 143,-130 353,-130 353,-78 143,-78"/>
</g>
<g id="clust10" class="cluster">
<title>cluster_SharedModule_exports</title>
<polygon fill="none" stroke="black" points="140,-208 140,-260 356,-260 356,-208 140,-208"/>
</g>
<!-- Footer -->
<g id="node1" class="node">
<title>Footer</title>
<polygon fill="#8dd3c7" stroke="black" points="345,-122 342,-126 321,-126 318,-122 291,-122 291,-86 345,-86 345,-122"/>
<text text-anchor="middle" x="318" y="-99.8" font-family="Times,serif" font-size="14.00">Footer</text>
</g>
<!-- SharedModule -->
<g id="node3" class="node">
<title>SharedModule</title>
<polygon fill="#8dd3c7" stroke="black" points="262.42,-187 259.42,-191 238.42,-191 235.42,-187 163.58,-187 163.58,-151 262.42,-151 262.42,-187"/>
<text text-anchor="middle" x="213" y="-164.8" font-family="Times,serif" font-size="14.00">SharedModule</text>
</g>
<!-- Footer&#45;&gt;SharedModule -->
<g id="edge1" class="edge">
<title>Footer&#45;&gt;SharedModule</title>
<path fill="none" stroke="black" d="M327.33,-122.02C327.33,-139.37 327.33,-163 327.33,-163 327.33,-163 272.48,-163 272.48,-163"/>
<polygon fill="black" stroke="black" points="272.48,-159.5 262.48,-163 272.48,-166.5 272.48,-159.5"/>
</g>
<!-- NavbarComponent -->
<g id="node2" class="node">
<title>NavbarComponent</title>
<polygon fill="#8dd3c7" stroke="black" points="273.03,-122 270.03,-126 249.03,-126 246.03,-122 150.97,-122 150.97,-86 273.03,-86 273.03,-122"/>
<text text-anchor="middle" x="212" y="-99.8" font-family="Times,serif" font-size="14.00">NavbarComponent</text>
</g>
<!-- NavbarComponent&#45;&gt;SharedModule -->
<g id="edge2" class="edge">
<title>NavbarComponent&#45;&gt;SharedModule</title>
<path fill="none" stroke="black" d="M213,-122.11C213,-122.11 213,-140.99 213,-140.99"/>
<polygon fill="black" stroke="black" points="209.5,-140.99 213,-150.99 216.5,-140.99 209.5,-140.99"/>
</g>
<!-- Footer  -->
<g id="node4" class="node">
<title>Footer </title>
<polygon fill="#fb8072" stroke="black" points="348.05,-252 291.95,-252 291.95,-216 348.05,-216 348.05,-252"/>
<text text-anchor="middle" x="320" y="-229.8" font-family="Times,serif" font-size="14.00">Footer </text>
</g>
<!-- SharedModule&#45;&gt;Footer  -->
<g id="edge3" class="edge">
<title>SharedModule&#45;&gt;Footer </title>
<path fill="none" stroke="black" stroke-dasharray="5,2" d="M262.46,-175C286.24,-175 309.65,-175 309.65,-175 309.65,-175 309.65,-205.98 309.65,-205.98"/>
<polygon fill="black" stroke="black" points="306.15,-205.98 309.65,-215.98 313.15,-205.98 306.15,-205.98"/>
</g>
<!-- NavbarComponent  -->
<g id="node5" class="node">
<title>NavbarComponent </title>
<polygon fill="#fb8072" stroke="black" points="274.03,-252 147.97,-252 147.97,-216 274.03,-216 274.03,-252"/>
<text text-anchor="middle" x="211" y="-229.8" font-family="Times,serif" font-size="14.00">NavbarComponent </text>
</g>
<!-- SharedModule&#45;&gt;NavbarComponent  -->
<g id="edge4" class="edge">
<title>SharedModule&#45;&gt;NavbarComponent </title>
<path fill="none" stroke="black" stroke-dasharray="5,2" d="M213,-187.11C213,-187.11 213,-205.99 213,-205.99"/>
<polygon fill="black" stroke="black" points="209.5,-205.99 213,-215.99 216.5,-205.99 209.5,-205.99"/>
</g>
</g>
</svg>
